<?xml version="1.0" encoding="UTF-8"?>
<svg xmlns="http://www.w3.org/2000/svg" xmlns:xlink="http://www.w3.org/1999/xlink" width="29px" height="16px" viewBox="0 0 29 16" version="1.1">
<g id="surface1">
<path style=" stroke:none;fill-rule:nonzero;fill:rgb(0%,0%,0%);fill-opacity:1;" d="M 21.960938 0.0234375 C 21.921875 0.0703125 21.871094 0.226562 21.878906 0.257812 C 21.886719 0.273438 21.957031 0.316406 22.035156 0.355469 C 22.171875 0.417969 22.179688 0.425781 22.171875 0.480469 C 22.15625 0.535156 22.167969 0.539062 22.417969 0.664062 C 22.695312 0.800781 22.714844 0.804688 22.753906 0.765625 C 22.773438 0.746094 22.796875 0.753906 22.855469 0.777344 C 22.898438 0.796875 22.953125 0.808594 22.976562 0.808594 C 23 0.804688 23.117188 0.863281 23.238281 0.933594 C 23.519531 1.101562 23.765625 1.214844 23.992188 1.285156 C 24.140625 1.332031 24.160156 1.34375 24.117188 1.355469 C 23.988281 1.390625 23.722656 1.398438 23.421875 1.375 L 23.097656 1.351562 L 22.898438 1.425781 C 22.597656 1.535156 22.601562 1.527344 22.804688 1.59375 C 22.90625 1.625 22.984375 1.652344 22.984375 1.660156 C 22.984375 1.664062 22.851562 1.660156 22.683594 1.652344 L 22.378906 1.640625 L 22.191406 1.734375 C 22.09375 1.789062 21.988281 1.84375 21.96875 1.859375 C 21.925781 1.890625 21.949219 1.894531 22.335938 1.949219 C 22.4375 1.964844 22.4375 1.964844 22.378906 1.984375 C 22.34375 1.992188 22.191406 2.023438 22.042969 2.050781 C 20.941406 2.261719 19.914062 2.253906 19.257812 2.039062 C 19.050781 1.96875 19.007812 1.945312 19.019531 1.890625 C 19.03125 1.851562 19.015625 1.835938 18.929688 1.792969 C 18.851562 1.753906 18.824219 1.730469 18.824219 1.695312 C 18.824219 1.613281 18.75 1.554688 18.476562 1.417969 C 18.21875 1.289062 18.203125 1.285156 18.175781 1.320312 C 18.152344 1.355469 18.140625 1.351562 17.980469 1.269531 C 17.886719 1.222656 17.804688 1.191406 17.796875 1.203125 C 17.757812 1.242188 17.546875 1.667969 17.550781 1.691406 C 17.554688 1.703125 17.628906 1.753906 17.714844 1.800781 C 17.832031 1.867188 17.867188 1.894531 17.863281 1.929688 C 17.855469 1.960938 17.90625 1.992188 18.136719 2.109375 C 18.425781 2.257812 18.480469 2.269531 18.550781 2.222656 C 18.585938 2.195312 18.601562 2.195312 18.699219 2.242188 C 18.832031 2.300781 18.839844 2.300781 18.855469 2.253906 C 18.867188 2.210938 18.871094 2.210938 18.984375 2.261719 C 19.152344 2.335938 19.398438 2.40625 19.703125 2.460938 C 20.167969 2.542969 21.253906 2.523438 21.785156 2.417969 C 21.910156 2.394531 21.871094 2.421875 21.6875 2.488281 C 21.402344 2.589844 21.269531 2.609375 20.605469 2.621094 C 19.902344 2.640625 19.988281 2.621094 19.503906 2.863281 C 19.152344 3.042969 18.925781 3.128906 18.816406 3.121094 L 18.738281 3.113281 L 18.863281 2.953125 C 18.9375 2.863281 19.0625 2.730469 19.148438 2.652344 C 19.25 2.558594 19.289062 2.507812 19.273438 2.5 C 19.261719 2.492188 19.1875 2.460938 19.109375 2.4375 L 18.96875 2.386719 L 18.855469 2.503906 C 18.789062 2.566406 18.675781 2.695312 18.59375 2.796875 C 18.515625 2.898438 18.4375 2.980469 18.417969 2.980469 C 18.359375 2.980469 18.058594 2.800781 18.039062 2.757812 C 18.03125 2.730469 17.996094 2.695312 17.960938 2.675781 C 17.917969 2.65625 17.898438 2.628906 17.898438 2.597656 C 17.898438 2.554688 17.855469 2.527344 17.625 2.414062 C 17.359375 2.277344 17.351562 2.277344 17.3125 2.3125 C 17.273438 2.351562 17.265625 2.351562 17.148438 2.277344 C 16.96875 2.175781 16.9375 2.183594 16.875 2.324219 C 16.851562 2.386719 16.832031 2.449219 16.835938 2.457031 C 16.84375 2.46875 16.914062 2.511719 16.992188 2.554688 C 17.125 2.621094 17.132812 2.632812 17.125 2.683594 C 17.113281 2.738281 17.125 2.746094 17.382812 2.882812 C 17.625 3.011719 17.660156 3.023438 17.703125 3 C 17.738281 2.980469 17.761719 2.980469 17.8125 3.011719 C 17.851562 3.027344 17.894531 3.042969 17.914062 3.039062 C 17.933594 3.035156 18.027344 3.074219 18.121094 3.121094 L 18.292969 3.210938 L 18.226562 3.324219 C 18.191406 3.382812 18.171875 3.441406 18.179688 3.445312 C 18.207031 3.457031 18.417969 3.519531 18.445312 3.519531 C 18.457031 3.519531 18.488281 3.484375 18.515625 3.4375 C 18.539062 3.390625 18.566406 3.351562 18.574219 3.347656 C 18.585938 3.339844 18.675781 3.363281 18.785156 3.398438 C 19.085938 3.496094 19.339844 3.527344 19.773438 3.527344 C 20.035156 3.527344 20.195312 3.519531 20.292969 3.496094 C 20.457031 3.460938 20.453125 3.46875 20.246094 3.582031 C 19.921875 3.757812 19.605469 3.824219 19.207031 3.804688 C 18.949219 3.792969 18.789062 3.757812 18.347656 3.613281 C 18.226562 3.574219 18.039062 3.527344 17.933594 3.507812 C 17.726562 3.472656 17.324219 3.460938 17.070312 3.488281 C 16.914062 3.503906 16.90625 3.503906 16.894531 3.460938 C 16.882812 3.410156 16.882812 3.410156 16.746094 3.441406 C 16.652344 3.460938 16.636719 3.457031 16.589844 3.417969 C 16.523438 3.367188 16.460938 3.363281 16.230469 3.40625 C 15.851562 3.472656 15.839844 3.476562 15.839844 3.53125 C 15.839844 3.585938 15.828125 3.589844 15.617188 3.625 C 15.511719 3.640625 15.46875 3.660156 15.46875 3.679688 C 15.46875 3.714844 15.550781 4.195312 15.558594 4.203125 C 15.5625 4.207031 15.636719 4.195312 15.726562 4.175781 C 15.941406 4.136719 15.957031 4.136719 15.96875 4.191406 C 15.980469 4.230469 15.992188 4.234375 16.050781 4.222656 C 16.085938 4.210938 16.214844 4.1875 16.332031 4.167969 C 16.644531 4.109375 16.640625 4.109375 16.675781 4.035156 C 16.707031 3.972656 16.722656 3.960938 16.828125 3.9375 C 16.933594 3.914062 16.949219 3.902344 16.949219 3.863281 C 16.949219 3.820312 16.964844 3.8125 17.070312 3.796875 C 17.132812 3.789062 17.316406 3.785156 17.476562 3.785156 C 17.789062 3.785156 17.917969 3.808594 18.308594 3.925781 C 18.855469 4.089844 18.972656 4.113281 19.339844 4.113281 C 19.726562 4.113281 19.894531 4.082031 20.203125 3.949219 C 20.488281 3.828125 20.691406 3.695312 21.421875 3.144531 C 22.046875 2.671875 22.5 2.382812 23.035156 2.125 C 23.703125 1.800781 24.3125 1.617188 24.972656 1.542969 C 25.074219 1.53125 25.160156 1.523438 25.164062 1.527344 C 25.167969 1.535156 25.082031 1.558594 24.96875 1.582031 C 23.902344 1.832031 22.847656 2.378906 21.621094 3.324219 C 20.695312 4.035156 20.421875 4.183594 19.789062 4.339844 C 19.664062 4.371094 19.46875 4.421875 19.347656 4.449219 C 19.222656 4.480469 18.871094 4.601562 18.566406 4.722656 C 18.261719 4.835938 17.917969 4.957031 17.808594 4.988281 C 17.066406 5.183594 16.117188 5.140625 14.511719 4.839844 C 13.273438 4.609375 13.234375 4.605469 12.78125 4.589844 C 12.242188 4.570312 11.8125 4.632812 11.3125 4.792969 C 10.882812 4.933594 10.320312 5.246094 10 5.527344 L 9.878906 5.636719 L 9.679688 5.636719 C 9.460938 5.632812 9.34375 5.605469 8.835938 5.4375 C 8.210938 5.226562 7.910156 5.175781 7.375 5.195312 C 7.097656 5.203125 6.957031 5.214844 6.765625 5.257812 C 6.285156 5.359375 5.765625 5.574219 5.289062 5.867188 C 5.167969 5.941406 5.066406 6 5.0625 6 C 5.054688 6 5.035156 5.957031 5.015625 5.910156 C 4.976562 5.800781 4.835938 5.660156 4.722656 5.609375 C 4.675781 5.589844 4.582031 5.574219 4.5 5.574219 C 4.304688 5.574219 4.148438 5.644531 4.039062 5.796875 C 3.945312 5.925781 3.914062 6.015625 3.914062 6.144531 C 3.914062 6.269531 3.941406 6.363281 4.007812 6.460938 L 4.058594 6.542969 L 4.136719 6.496094 C 4.179688 6.46875 4.238281 6.433594 4.261719 6.414062 L 4.3125 6.382812 L 4.269531 6.308594 C 4.183594 6.175781 4.222656 5.992188 4.347656 5.925781 C 4.425781 5.886719 4.558594 5.886719 4.636719 5.929688 C 4.742188 5.984375 4.792969 6.167969 4.722656 6.234375 C 4.640625 6.304688 3.976562 6.738281 3.828125 6.816406 C 3.230469 7.117188 2.523438 7.269531 1.726562 7.269531 C 1.457031 7.269531 1.441406 7.269531 1.441406 7.230469 C 1.441406 7.191406 1.425781 7.1875 1.324219 7.1875 C 1.21875 7.1875 1.199219 7.179688 1.148438 7.125 L 1.085938 7.0625 L 0.75 7.0625 C 0.417969 7.0625 0.414062 7.0625 0.40625 7.109375 C 0.402344 7.152344 0.390625 7.15625 0.203125 7.164062 L 0 7.167969 L 0 7.730469 L 0.207031 7.730469 C 0.398438 7.730469 0.410156 7.730469 0.410156 7.769531 C 0.410156 7.808594 0.425781 7.8125 0.746094 7.8125 C 1.054688 7.8125 1.085938 7.808594 1.128906 7.769531 C 1.152344 7.746094 1.175781 7.71875 1.175781 7.707031 C 1.175781 7.695312 1.234375 7.6875 1.308594 7.6875 C 1.4375 7.6875 1.441406 7.683594 1.441406 7.636719 L 1.441406 7.582031 L 1.765625 7.582031 C 2.710938 7.582031 3.539062 7.367188 4.234375 6.945312 L 4.441406 6.816406 L 4.601562 6.855469 C 4.691406 6.878906 4.851562 6.898438 4.957031 6.910156 L 5.152344 6.921875 L 5.359375 6.714844 C 5.476562 6.601562 5.617188 6.464844 5.679688 6.410156 C 5.738281 6.355469 5.78125 6.3125 5.773438 6.3125 C 5.769531 6.3125 5.605469 6.359375 5.40625 6.414062 C 5.039062 6.519531 4.839844 6.566406 4.839844 6.542969 C 4.839844 6.539062 4.980469 6.4375 5.152344 6.324219 C 5.714844 5.949219 6.304688 5.679688 6.828125 5.558594 C 7.089844 5.5 7.613281 5.484375 7.917969 5.527344 C 8.261719 5.578125 8.277344 5.59375 7.976562 5.601562 C 6.953125 5.617188 6.128906 6.039062 5.277344 6.976562 C 5.109375 7.167969 5.035156 7.261719 5.050781 7.273438 C 5.066406 7.277344 5.140625 7.296875 5.21875 7.3125 L 5.359375 7.339844 L 5.671875 7.023438 C 5.84375 6.851562 6.042969 6.664062 6.113281 6.605469 C 6.507812 6.289062 6.9375 6.082031 7.433594 5.96875 C 7.59375 5.933594 8.386719 5.898438 8.359375 5.925781 C 8.351562 5.933594 8.210938 5.972656 8.050781 6.011719 C 7.886719 6.050781 7.570312 6.144531 7.34375 6.21875 C 7.117188 6.292969 6.847656 6.371094 6.746094 6.398438 C 6.644531 6.421875 6.535156 6.457031 6.5 6.476562 C 6.375 6.539062 5.933594 6.894531 5.980469 6.894531 C 5.996094 6.894531 6.433594 6.800781 6.519531 6.777344 C 6.589844 6.761719 6.300781 7.003906 5.921875 7.277344 L 5.695312 7.441406 L 5.417969 7.429688 C 5.050781 7.417969 4.808594 7.355469 4.480469 7.191406 L 4.238281 7.066406 L 3.988281 7.214844 L 4.046875 7.261719 C 4.246094 7.421875 4.832031 7.664062 5.105469 7.699219 C 5.214844 7.710938 5.242188 7.738281 5.171875 7.761719 C 5.148438 7.765625 5.046875 7.871094 4.941406 7.992188 L 4.75 8.214844 L 4.832031 8.199219 C 5.074219 8.152344 5.507812 7.960938 5.757812 7.792969 C 5.820312 7.746094 5.882812 7.730469 6.019531 7.710938 C 6.253906 7.679688 6.441406 7.628906 6.765625 7.511719 C 6.820312 7.488281 6.660156 7.640625 6.460938 7.792969 C 6.148438 8.03125 5.871094 8.167969 5.496094 8.261719 C 5.332031 8.304688 5.210938 8.320312 4.953125 8.328125 L 4.621094 8.339844 L 4.316406 8.621094 L 4.480469 8.636719 C 4.734375 8.660156 5.253906 8.632812 5.484375 8.582031 C 5.871094 8.5 6.199219 8.359375 6.550781 8.121094 C 6.703125 8.019531 6.867188 7.867188 7.292969 7.445312 C 7.59375 7.144531 7.878906 6.867188 7.929688 6.828125 C 8.261719 6.574219 8.621094 6.445312 9.070312 6.421875 C 9.199219 6.417969 9.308594 6.417969 9.308594 6.421875 C 9.308594 6.429688 9.277344 6.53125 9.238281 6.648438 C 9.125 6.992188 9.097656 7.144531 9.097656 7.449219 C 9.097656 7.933594 9.210938 8.304688 9.507812 8.761719 C 9.6875 9.027344 9.875 9.242188 10.226562 9.5625 C 10.636719 9.933594 10.839844 10.140625 10.886719 10.238281 C 10.921875 10.308594 10.925781 10.363281 10.925781 10.574219 C 10.925781 10.800781 10.921875 10.835938 10.859375 10.996094 C 10.789062 11.183594 10.578125 11.578125 10.355469 11.921875 C 10.183594 12.191406 10.167969 12.238281 10.179688 12.382812 C 10.191406 12.523438 10.277344 12.648438 10.457031 12.800781 C 10.9375 13.183594 11.464844 13.679688 11.789062 14.046875 C 12 14.289062 12.230469 14.601562 12.296875 14.734375 C 12.375 14.886719 12.507812 15.035156 12.589844 15.058594 C 12.628906 15.070312 12.710938 15.085938 12.777344 15.097656 C 13 15.121094 13.074219 15.253906 12.972656 15.4375 C 12.929688 15.515625 12.929688 15.519531 12.964844 15.628906 C 13.042969 15.871094 13.0625 15.886719 13.386719 15.957031 C 13.53125 15.992188 13.648438 16 13.910156 16 C 14.253906 16 14.355469 15.980469 14.355469 15.921875 C 14.355469 15.867188 14.175781 15.488281 14.082031 15.339844 C 14.03125 15.261719 13.929688 15.140625 13.851562 15.070312 C 13.535156 14.796875 13.472656 14.726562 13.394531 14.578125 C 13.277344 14.347656 13.257812 14.324219 12.992188 14.121094 C 12.71875 13.917969 12.253906 13.457031 12.015625 13.164062 C 11.941406 13.066406 11.847656 12.921875 11.808594 12.839844 C 11.746094 12.707031 11.738281 12.675781 11.738281 12.496094 C 11.738281 12.160156 11.800781 12.027344 12.144531 11.621094 C 12.621094 11.066406 13.140625 10.332031 13.320312 9.96875 C 13.425781 9.761719 13.527344 9.480469 13.566406 9.292969 C 13.609375 9.074219 13.613281 8.679688 13.566406 8.46875 C 13.5 8.167969 13.296875 7.667969 13.132812 7.410156 C 13.089844 7.339844 13.058594 7.285156 13.0625 7.277344 C 13.082031 7.261719 13.410156 7.609375 13.503906 7.742188 C 13.636719 7.925781 13.792969 8.273438 13.839844 8.484375 C 13.890625 8.691406 13.902344 9.054688 13.863281 9.246094 C 13.835938 9.390625 13.835938 9.394531 13.875 9.394531 C 13.945312 9.394531 14.511719 9.597656 14.851562 9.742188 C 15.710938 10.113281 15.996094 10.207031 16.675781 10.320312 C 17.101562 10.394531 17.324219 10.414062 17.855469 10.4375 C 18.113281 10.449219 18.332031 10.457031 18.347656 10.457031 C 18.363281 10.457031 18.371094 10.410156 18.371094 10.289062 C 18.371094 10.066406 18.433594 9.78125 18.554688 9.414062 C 18.664062 9.089844 18.757812 8.863281 18.761719 8.921875 C 18.761719 8.941406 18.746094 9.085938 18.722656 9.242188 C 18.65625 9.707031 18.621094 10.0625 18.621094 10.222656 C 18.621094 10.421875 18.675781 10.523438 18.9375 10.796875 C 19.050781 10.914062 19.285156 11.203125 19.460938 11.429688 C 19.695312 11.746094 19.855469 11.933594 20.101562 12.179688 C 20.449219 12.535156 20.527344 12.644531 20.507812 12.765625 C 20.488281 12.890625 20.433594 12.925781 20.113281 13.042969 C 19.710938 13.183594 19.476562 13.234375 19.183594 13.238281 L 18.910156 13.238281 L 18.800781 13.316406 C 18.738281 13.359375 18.664062 13.394531 18.632812 13.394531 C 18.546875 13.394531 18.480469 13.316406 18.464844 13.183594 C 18.457031 13.121094 18.445312 13.054688 18.441406 13.039062 C 18.429688 12.988281 18.140625 12.8125 18.074219 12.8125 C 18.015625 12.8125 17.621094 13.011719 17.433594 13.136719 C 17.308594 13.222656 17.152344 13.367188 17.113281 13.441406 C 17.097656 13.472656 17.109375 13.488281 17.183594 13.542969 C 17.285156 13.617188 17.679688 13.816406 17.828125 13.863281 C 17.882812 13.882812 18.035156 13.914062 18.160156 13.9375 C 18.414062 13.984375 18.542969 14.027344 18.699219 14.125 C 18.929688 14.269531 19.113281 14.253906 19.527344 14.042969 C 20 13.800781 20.457031 13.640625 20.964844 13.535156 C 21.046875 13.515625 21.15625 13.476562 21.203125 13.449219 C 21.382812 13.34375 21.535156 13.023438 21.558594 12.71875 C 21.570312 12.554688 21.574219 12.574219 21.328125 12.136719 C 21.148438 11.808594 20.828125 11.019531 20.683594 10.53125 C 20.617188 10.300781 20.609375 10.070312 20.667969 9.894531 C 20.722656 9.730469 20.742188 9.722656 20.742188 9.863281 C 20.742188 9.972656 20.785156 10.195312 20.808594 10.222656 C 20.824219 10.234375 21.191406 10.046875 21.324219 9.957031 C 21.503906 9.832031 21.796875 9.539062 21.914062 9.363281 C 22.261719 8.851562 22.355469 8.277344 22.199219 7.648438 C 22.105469 7.253906 21.8125 6.632812 21.492188 6.148438 C 21.316406 5.878906 21.308594 5.859375 21.382812 5.917969 C 21.5 6.011719 21.777344 6.328125 21.949219 6.554688 C 22.597656 7.429688 22.71875 8.464844 22.269531 9.289062 C 22.027344 9.726562 21.667969 10.074219 21.15625 10.359375 L 21.003906 10.445312 L 21.117188 10.554688 C 21.285156 10.734375 21.332031 10.75 21.699219 10.75 C 21.871094 10.75 22.144531 10.765625 22.308594 10.785156 C 22.605469 10.816406 22.632812 10.816406 23.5 10.777344 C 23.761719 10.769531 23.8125 10.769531 23.902344 10.804688 C 24.089844 10.878906 24.121094 11.039062 24.011719 11.363281 C 23.875 11.789062 23.652344 12.167969 23.414062 12.382812 C 23.242188 12.535156 23.222656 12.570312 23.195312 12.769531 C 23.179688 12.839844 23.15625 12.917969 23.136719 12.941406 C 23.089844 12.996094 22.972656 12.988281 22.863281 12.925781 C 22.816406 12.898438 22.753906 12.875 22.726562 12.875 C 22.675781 12.875 22.417969 12.972656 22.375 13.007812 C 22.335938 13.035156 22.226562 13.390625 22.191406 13.609375 C 22.152344 13.839844 22.15625 14.152344 22.207031 14.199219 C 22.253906 14.246094 22.433594 14.191406 22.769531 14.023438 C 23 13.910156 23.085938 13.851562 23.191406 13.75 C 23.457031 13.496094 23.582031 13.398438 23.777344 13.300781 C 24.050781 13.160156 24.09375 13.109375 24.214844 12.742188 C 24.421875 12.097656 24.664062 11.585938 24.921875 11.242188 C 25.023438 11.105469 25.046875 11.039062 25.050781 10.886719 C 25.050781 10.730469 24.957031 10.371094 24.890625 10.265625 C 24.804688 10.136719 24.710938 10.082031 24.371094 9.96875 C 24.191406 9.910156 23.824219 9.773438 23.554688 9.667969 C 23.289062 9.566406 23.058594 9.480469 23.046875 9.480469 C 23.035156 9.480469 22.960938 9.535156 22.878906 9.605469 C 22.746094 9.722656 22.699219 9.757812 22.5 9.875 C 22.421875 9.921875 22.421875 9.921875 22.554688 9.773438 C 23.246094 8.992188 23.472656 8.566406 23.511719 7.957031 C 23.527344 7.734375 23.492188 7.230469 23.460938 7.230469 C 23.453125 7.230469 23.402344 7.285156 23.355469 7.347656 C 23.179688 7.582031 22.847656 7.96875 22.832031 7.953125 C 22.820312 7.941406 22.957031 7.535156 23.003906 7.4375 C 23.03125 7.386719 23.175781 7.171875 23.324219 6.957031 C 23.648438 6.507812 23.863281 6.167969 24.097656 5.75 C 24.347656 5.308594 24.480469 5.109375 24.632812 4.957031 C 24.785156 4.804688 24.964844 4.707031 25.105469 4.691406 L 25.199219 4.683594 L 25.109375 4.496094 C 24.980469 4.230469 24.941406 3.996094 24.988281 3.726562 C 25.019531 3.535156 25.117188 3.253906 25.179688 3.175781 C 25.210938 3.136719 25.210938 3.136719 25.199219 3.175781 C 25.125 3.402344 25.109375 3.753906 25.160156 3.984375 C 25.222656 4.253906 25.398438 4.5625 25.578125 4.703125 C 25.765625 4.855469 26.066406 4.976562 26.25 4.980469 C 26.335938 4.980469 26.4375 5.039062 26.742188 5.25 C 26.878906 5.347656 27.046875 5.460938 27.109375 5.5 C 27.289062 5.609375 27.367188 5.695312 27.40625 5.832031 C 27.457031 6.015625 27.5 6.101562 27.558594 6.148438 C 27.703125 6.25 27.992188 6.300781 28.125 6.25 C 28.15625 6.238281 28.257812 6.222656 28.347656 6.214844 C 28.59375 6.195312 28.675781 6.140625 28.75 5.949219 C 28.769531 5.890625 28.824219 5.785156 28.871094 5.710938 C 28.980469 5.539062 29.007812 5.460938 28.996094 5.304688 C 28.988281 5.195312 28.972656 5.152344 28.863281 4.96875 C 28.648438 4.613281 28.058594 3.554688 27.980469 3.390625 C 27.941406 3.308594 27.894531 3.167969 27.878906 3.085938 C 27.839844 2.898438 27.824219 2.875 27.644531 2.617188 C 27.410156 2.292969 27.289062 2.109375 27.234375 1.988281 L 27.183594 1.878906 L 27.289062 1.664062 C 27.410156 1.402344 27.480469 1.105469 27.472656 0.855469 L 27.464844 0.699219 L 27.257812 0.894531 C 27.046875 1.101562 26.742188 1.347656 26.722656 1.328125 C 26.714844 1.320312 26.800781 0.621094 26.828125 0.503906 C 26.835938 0.460938 26.832031 0.457031 26.792969 0.46875 C 26.632812 0.515625 26.234375 0.855469 26.082031 1.082031 C 26.027344 1.15625 25.976562 1.226562 25.96875 1.234375 C 25.964844 1.246094 25.910156 1.214844 25.851562 1.171875 C 25.621094 0.996094 25.34375 0.867188 25.007812 0.777344 C 24.847656 0.734375 24.742188 0.722656 24.464844 0.714844 C 24.125 0.703125 23.695312 0.734375 23.71875 0.769531 C 23.730469 0.796875 24.085938 0.929688 24.230469 0.964844 C 24.300781 0.984375 24.453125 1.007812 24.570312 1.019531 C 24.753906 1.042969 25.160156 1.132812 25.1875 1.160156 C 25.191406 1.164062 25.085938 1.167969 24.953125 1.167969 C 24.535156 1.167969 24.117188 1.082031 23.761719 0.925781 C 23.527344 0.824219 23.113281 0.578125 23.101562 0.539062 C 23.097656 0.519531 23.058594 0.484375 23.019531 0.464844 C 22.96875 0.441406 22.945312 0.417969 22.945312 0.382812 C 22.945312 0.324219 22.933594 0.316406 22.640625 0.175781 L 22.382812 0.0546875 L 22.347656 0.101562 L 22.316406 0.144531 L 22.183594 0.0742188 C 22.039062 -0.00390625 21.992188 -0.015625 21.960938 0.0234375 Z M 22.160156 0.175781 C 22.265625 0.230469 22.285156 0.261719 22.238281 0.308594 C 22.214844 0.332031 22.117188 0.300781 22.023438 0.238281 C 21.984375 0.210938 21.980469 0.199219 21.996094 0.167969 C 22.027344 0.113281 22.039062 0.113281 22.160156 0.175781 Z M 17.976562 1.382812 C 18.035156 1.414062 18.082031 1.453125 18.082031 1.46875 C 18.082031 1.484375 18.078125 1.5 18.074219 1.5 C 18.042969 1.5 17.816406 1.371094 17.816406 1.359375 C 17.816406 1.335938 17.839844 1.308594 17.855469 1.316406 C 17.863281 1.320312 17.917969 1.351562 17.976562 1.382812 Z M 18.023438 1.605469 C 18.023438 1.644531 17.988281 1.640625 17.886719 1.589844 C 17.765625 1.527344 17.746094 1.511719 17.761719 1.480469 C 17.777344 1.457031 18.023438 1.570312 18.023438 1.605469 Z M 17.839844 1.667969 C 17.941406 1.722656 17.957031 1.738281 17.941406 1.761719 C 17.917969 1.785156 17.894531 1.78125 17.792969 1.730469 C 17.675781 1.667969 17.65625 1.648438 17.6875 1.617188 C 17.703125 1.597656 17.699219 1.597656 17.839844 1.667969 Z M 17.117188 2.375 C 17.199219 2.417969 17.234375 2.449219 17.226562 2.464844 C 17.183594 2.539062 17.175781 2.542969 17.050781 2.480469 C 16.9375 2.417969 16.933594 2.414062 16.957031 2.363281 C 16.96875 2.335938 16.980469 2.3125 16.984375 2.3125 C 16.988281 2.3125 17.050781 2.339844 17.117188 2.375 Z M 27.003906 2.90625 C 27.214844 2.953125 27.28125 2.988281 27.328125 3.089844 C 27.351562 3.136719 27.375 3.207031 27.382812 3.246094 C 27.394531 3.308594 27.394531 3.316406 27.363281 3.304688 C 27.347656 3.296875 27.273438 3.277344 27.203125 3.257812 C 27.03125 3.214844 26.972656 3.167969 26.898438 3.019531 C 26.835938 2.898438 26.828125 2.875 26.84375 2.875 C 26.851562 2.875 26.921875 2.890625 27.003906 2.90625 Z M 20.46875 2.9375 C 20.601562 2.957031 20.742188 2.980469 20.78125 2.984375 C 20.855469 2.988281 20.851562 2.988281 20.734375 3.039062 C 20.4375 3.152344 19.914062 3.25 19.585938 3.25 C 19.335938 3.25 19.300781 3.226562 19.480469 3.179688 C 19.554688 3.160156 19.746094 3.085938 19.90625 3.019531 C 20.066406 2.953125 20.203125 2.898438 20.210938 2.898438 C 20.222656 2.894531 20.335938 2.914062 20.46875 2.9375 Z M 24.488281 3.679688 C 23.960938 4.351562 23.296875 5.539062 22.902344 6.527344 C 22.847656 6.664062 22.800781 6.777344 22.792969 6.785156 C 22.78125 6.796875 22.832031 6.464844 22.875 6.269531 C 22.941406 5.964844 23.144531 5.386719 23.292969 5.085938 C 23.566406 4.542969 24.011719 3.972656 24.449219 3.621094 C 24.546875 3.546875 24.625 3.484375 24.628906 3.488281 C 24.632812 3.492188 24.570312 3.578125 24.488281 3.679688 Z M 15.898438 3.855469 C 15.914062 3.949219 15.921875 4.027344 15.914062 4.035156 C 15.90625 4.042969 15.699219 4.082031 15.664062 4.082031 C 15.644531 4.082031 15.558594 3.753906 15.578125 3.738281 C 15.585938 3.730469 15.789062 3.691406 15.832031 3.691406 C 15.867188 3.6875 15.875 3.707031 15.898438 3.855469 Z M 7.910156 6.453125 C 7.859375 6.484375 7.730469 6.570312 7.628906 6.640625 C 7.214844 6.925781 6.824219 7.148438 6.566406 7.253906 C 6.507812 7.273438 6.457031 7.289062 6.453125 7.285156 C 6.433594 7.265625 7.011719 6.84375 7.234375 6.710938 C 7.421875 6.601562 7.699219 6.476562 7.886719 6.417969 C 7.992188 6.382812 8 6.398438 7.910156 6.453125 Z M 0.410156 7.449219 L 0.410156 7.625 L 0.101562 7.625 L 0.101562 7.273438 L 0.242188 7.265625 C 0.320312 7.261719 0.386719 7.261719 0.398438 7.265625 C 0.40625 7.269531 0.410156 7.351562 0.410156 7.449219 Z M 0.410156 7.449219 "/>
<path style=" stroke:none;fill-rule:nonzero;fill:rgb(0%,0%,0%);fill-opacity:1;" d="M 19.996094 0.851562 C 19.734375 0.902344 19.730469 0.902344 19.730469 0.960938 C 19.730469 1.015625 19.726562 1.019531 19.578125 1.042969 C 19.492188 1.054688 19.414062 1.082031 19.398438 1.097656 C 19.382812 1.117188 19.382812 1.15625 19.402344 1.25 C 19.417969 1.320312 19.433594 1.378906 19.441406 1.386719 C 19.449219 1.390625 19.53125 1.378906 19.625 1.355469 L 19.792969 1.320312 L 19.804688 1.367188 C 19.820312 1.425781 19.828125 1.425781 20.085938 1.371094 C 20.421875 1.304688 20.453125 1.296875 20.453125 1.25 C 20.453125 1.222656 20.472656 1.207031 20.53125 1.195312 C 20.570312 1.191406 20.621094 1.164062 20.640625 1.140625 C 20.671875 1.101562 20.703125 1.097656 20.964844 1.085938 C 21.132812 1.082031 21.308594 1.085938 21.390625 1.101562 C 21.539062 1.128906 21.914062 1.246094 22.011719 1.300781 L 22.066406 1.328125 L 21.855469 1.433594 C 21.660156 1.535156 21.011719 1.917969 20.84375 2.035156 L 20.773438 2.082031 L 20.875 2.082031 C 20.933594 2.082031 21.078125 2.074219 21.199219 2.0625 C 21.414062 2.042969 21.421875 2.039062 21.625 1.917969 C 22.09375 1.636719 22.738281 1.339844 23.15625 1.214844 C 23.265625 1.183594 23.355469 1.152344 23.355469 1.144531 C 23.355469 1.140625 23.273438 1.089844 23.175781 1.035156 L 23 0.933594 L 22.738281 1.035156 C 22.597656 1.085938 22.457031 1.132812 22.429688 1.132812 C 22.402344 1.132812 22.257812 1.085938 22.109375 1.035156 C 21.644531 0.867188 21.242188 0.808594 20.832031 0.855469 C 20.648438 0.875 20.589844 0.875 20.578125 0.855469 C 20.566406 0.839844 20.53125 0.835938 20.480469 0.847656 C 20.417969 0.855469 20.394531 0.851562 20.371094 0.824219 C 20.335938 0.785156 20.3125 0.785156 19.996094 0.851562 Z M 19.769531 1.179688 C 19.777344 1.234375 19.722656 1.257812 19.578125 1.257812 C 19.507812 1.261719 19.496094 1.253906 19.488281 1.214844 C 19.484375 1.179688 19.496094 1.164062 19.53125 1.160156 C 19.554688 1.152344 19.59375 1.144531 19.617188 1.136719 C 19.707031 1.117188 19.761719 1.132812 19.769531 1.179688 Z M 19.769531 1.179688 "/>
<path style=" stroke:none;fill-rule:nonzero;fill:rgb(0%,0%,0%);fill-opacity:1;" d="M 20.800781 1.46875 C 20.558594 1.503906 20.371094 1.546875 20.1875 1.613281 C 19.867188 1.734375 19.464844 1.945312 19.5 1.980469 C 19.519531 2.003906 19.796875 2.0625 19.875 2.0625 C 19.90625 2.0625 20 2.027344 20.085938 1.988281 C 20.273438 1.902344 20.636719 1.804688 20.902344 1.769531 C 21.082031 1.746094 21.105469 1.738281 21.320312 1.609375 C 21.507812 1.496094 21.542969 1.46875 21.511719 1.457031 C 21.449219 1.429688 21.015625 1.441406 20.800781 1.46875 Z M 20.800781 1.46875 "/>
<path style=" stroke:none;fill-rule:nonzero;fill:rgb(0%,0%,0%);fill-opacity:1;" d="M 17.792969 3.972656 C 17.773438 3.992188 17.738281 4.007812 17.714844 4.011719 C 17.691406 4.011719 17.640625 4.03125 17.601562 4.050781 C 17.535156 4.089844 17.527344 4.089844 17.496094 4.058594 C 17.460938 4.023438 17.4375 4.035156 17.171875 4.167969 C 16.9375 4.289062 16.886719 4.320312 16.898438 4.351562 C 16.90625 4.367188 16.914062 4.394531 16.914062 4.402344 C 16.917969 4.414062 16.847656 4.457031 16.761719 4.503906 C 16.671875 4.546875 16.601562 4.59375 16.601562 4.609375 C 16.601562 4.652344 16.675781 4.800781 16.710938 4.832031 C 16.742188 4.855469 16.765625 4.847656 16.902344 4.785156 C 17.050781 4.710938 17.0625 4.707031 17.097656 4.742188 C 17.136719 4.777344 17.148438 4.773438 17.386719 4.652344 C 17.636719 4.527344 17.707031 4.480469 17.683594 4.441406 C 17.675781 4.429688 17.691406 4.40625 17.71875 4.390625 C 17.746094 4.378906 17.847656 4.277344 17.945312 4.175781 L 18.121094 3.984375 L 18.019531 3.960938 C 17.878906 3.929688 17.832031 3.929688 17.792969 3.972656 Z M 16.988281 4.546875 C 17.035156 4.589844 17.015625 4.621094 16.910156 4.675781 C 16.785156 4.738281 16.75 4.742188 16.734375 4.683594 C 16.71875 4.632812 16.71875 4.632812 16.84375 4.574219 C 16.960938 4.515625 16.957031 4.515625 16.988281 4.546875 Z M 16.988281 4.546875 "/>
<path style=" stroke:none;fill-rule:nonzero;fill:rgb(0%,0%,0%);fill-opacity:1;" d="M 1.164062 4.726562 C 1.035156 4.804688 0.921875 4.875 0.914062 4.882812 C 0.910156 4.886719 0.953125 4.96875 1.007812 5.066406 C 1.097656 5.21875 1.105469 5.242188 1.078125 5.273438 C 1.054688 5.300781 1.070312 5.335938 1.203125 5.574219 C 1.378906 5.886719 1.417969 5.933594 1.507812 5.941406 C 1.5625 5.945312 1.582031 5.964844 1.636719 6.058594 C 1.691406 6.152344 1.707031 6.164062 1.75 6.15625 C 1.796875 6.144531 1.820312 6.164062 1.914062 6.277344 C 2.171875 6.601562 2.582031 6.851562 2.992188 6.925781 C 3.160156 6.960938 3.164062 6.960938 3.300781 6.914062 L 3.441406 6.863281 L 3.347656 6.757812 C 3.265625 6.660156 3.246094 6.648438 3.144531 6.636719 C 2.976562 6.617188 2.726562 6.535156 2.578125 6.445312 C 2.417969 6.351562 2.082031 6.03125 2.082031 5.976562 C 2.082031 5.957031 2.089844 5.933594 2.101562 5.925781 C 2.117188 5.917969 2.101562 5.878906 2.066406 5.820312 C 2.023438 5.738281 2.015625 5.710938 2.027344 5.621094 C 2.042969 5.519531 2.035156 5.511719 1.871094 5.21875 C 1.738281 4.980469 1.691406 4.917969 1.664062 4.921875 C 1.632812 4.925781 1.597656 4.886719 1.53125 4.769531 C 1.480469 4.683594 1.429688 4.609375 1.421875 4.601562 C 1.414062 4.589844 1.300781 4.648438 1.164062 4.726562 Z M 1.457031 4.851562 C 1.535156 4.992188 1.535156 4.992188 1.492188 5.007812 C 1.453125 5.023438 1.308594 4.769531 1.34375 4.746094 C 1.382812 4.722656 1.386719 4.722656 1.457031 4.851562 Z M 1.316406 4.925781 C 1.386719 5.054688 1.394531 5.082031 1.351562 5.082031 C 1.304688 5.082031 1.167969 4.851562 1.199219 4.828125 C 1.242188 4.800781 1.25 4.808594 1.316406 4.925781 Z M 1.183594 5.023438 C 1.242188 5.121094 1.25 5.148438 1.226562 5.167969 C 1.203125 5.183594 1.1875 5.175781 1.148438 5.109375 C 1.066406 4.980469 1.046875 4.9375 1.0625 4.914062 C 1.085938 4.878906 1.113281 4.902344 1.183594 5.023438 Z M 1.183594 5.023438 "/>
<path style=" stroke:none;fill-rule:nonzero;fill:rgb(0%,0%,0%);fill-opacity:1;" d="M 2.320312 5.070312 C 2.210938 5.167969 2.207031 5.152344 2.371094 5.355469 C 2.441406 5.441406 2.445312 5.457031 2.421875 5.480469 C 2.402344 5.492188 2.390625 5.515625 2.390625 5.535156 C 2.390625 5.546875 2.476562 5.667969 2.585938 5.800781 C 2.738281 5.988281 2.796875 6.042969 2.824219 6.035156 C 2.851562 6.027344 2.882812 6.046875 2.921875 6.097656 C 2.953125 6.136719 2.992188 6.167969 3.011719 6.167969 C 3.03125 6.167969 3.085938 6.222656 3.136719 6.285156 C 3.199219 6.375 3.457031 6.710938 3.535156 6.808594 C 3.542969 6.820312 3.714844 6.753906 3.757812 6.722656 C 3.792969 6.699219 3.777344 6.671875 3.578125 6.429688 C 3.316406 6.117188 3.242188 6.007812 3.25 5.949219 C 3.253906 5.921875 3.234375 5.886719 3.203125 5.855469 C 3.164062 5.820312 3.15625 5.792969 3.164062 5.746094 C 3.175781 5.699219 3.152344 5.65625 2.988281 5.449219 C 2.882812 5.316406 2.789062 5.207031 2.785156 5.207031 C 2.78125 5.207031 2.761719 5.21875 2.738281 5.230469 C 2.707031 5.246094 2.683594 5.230469 2.59375 5.113281 C 2.535156 5.039062 2.46875 4.980469 2.453125 4.980469 C 2.433594 4.980469 2.375 5.019531 2.320312 5.070312 Z M 2.535156 5.210938 C 2.621094 5.3125 2.621094 5.320312 2.585938 5.347656 C 2.5625 5.363281 2.539062 5.375 2.53125 5.375 C 2.523438 5.375 2.476562 5.328125 2.433594 5.269531 C 2.355469 5.167969 2.351562 5.160156 2.382812 5.132812 C 2.402344 5.117188 2.425781 5.105469 2.433594 5.105469 C 2.441406 5.105469 2.484375 5.152344 2.535156 5.210938 Z M 2.535156 5.210938 "/>
<path style=" stroke:none;fill-rule:nonzero;fill:rgb(0%,0%,0%);fill-opacity:1;" d="M 0.0820312 5.917969 C -0.0117188 6.105469 -0.015625 6.089844 0.164062 6.191406 C 0.304688 6.269531 0.324219 6.285156 0.308594 6.320312 C 0.277344 6.375 0.296875 6.390625 0.585938 6.542969 C 0.804688 6.65625 0.847656 6.671875 0.882812 6.652344 C 0.914062 6.632812 0.9375 6.636719 0.996094 6.667969 C 1.039062 6.691406 1.082031 6.703125 1.089844 6.699219 C 1.113281 6.683594 1.332031 6.828125 1.523438 6.988281 C 1.613281 7.0625 1.703125 7.132812 1.722656 7.140625 C 1.746094 7.152344 1.847656 7.15625 1.953125 7.148438 L 2.148438 7.140625 L 2.046875 7.046875 C 1.875 6.890625 1.5625 6.640625 1.40625 6.535156 C 1.324219 6.476562 1.257812 6.421875 1.257812 6.417969 C 1.257812 6.410156 1.21875 6.378906 1.175781 6.347656 C 1.125 6.316406 1.089844 6.273438 1.089844 6.253906 C 1.089844 6.199219 1.078125 6.191406 0.785156 6.042969 C 0.546875 5.921875 0.53125 5.914062 0.496094 5.949219 C 0.460938 5.980469 0.449219 5.976562 0.3125 5.910156 C 0.230469 5.867188 0.15625 5.832031 0.144531 5.832031 C 0.132812 5.832031 0.105469 5.871094 0.0820312 5.917969 Z M 0.296875 6.015625 C 0.417969 6.074219 0.425781 6.082031 0.390625 6.148438 C 0.371094 6.183594 0.363281 6.183594 0.246094 6.125 C 0.179688 6.089844 0.125 6.054688 0.125 6.050781 C 0.125 6.035156 0.164062 5.957031 0.175781 5.957031 C 0.179688 5.957031 0.234375 5.984375 0.296875 6.015625 Z M 0.296875 6.015625 "/>
<path style=" stroke:none;fill-rule:nonzero;fill:rgb(0%,0%,0%);fill-opacity:1;" d="M 2.617188 7.636719 C 2.542969 7.648438 2.445312 7.664062 2.398438 7.664062 L 2.316406 7.667969 L 2.367188 7.710938 C 2.4375 7.769531 2.695312 7.898438 2.964844 8.011719 C 3.222656 8.117188 3.53125 8.203125 3.75 8.226562 C 3.902344 8.242188 3.902344 8.242188 3.996094 8.175781 C 4.046875 8.136719 4.125 8.070312 4.171875 8.023438 L 4.25 7.9375 L 4.097656 7.9375 C 3.792969 7.9375 3.328125 7.832031 2.992188 7.6875 C 2.886719 7.640625 2.789062 7.605469 2.777344 7.605469 C 2.761719 7.609375 2.691406 7.621094 2.617188 7.636719 Z M 2.617188 7.636719 "/>
<path style=" stroke:none;fill-rule:nonzero;fill:rgb(0%,0%,0%);fill-opacity:1;" d="M 4.488281 7.867188 C 4.15625 8.214844 3.820312 8.464844 3.542969 8.570312 C 3.324219 8.648438 3.296875 8.652344 3.296875 8.601562 C 3.296875 8.558594 3.289062 8.554688 3.175781 8.570312 C 3.0625 8.582031 3.050781 8.578125 2.996094 8.519531 L 2.933594 8.453125 L 2.699219 8.464844 C 2.289062 8.492188 2.246094 8.496094 2.246094 8.550781 C 2.246094 8.597656 2.234375 8.601562 2.035156 8.613281 C 1.839844 8.628906 1.832031 8.632812 1.839844 8.675781 C 1.84375 8.699219 1.859375 8.828125 1.867188 8.964844 L 1.878906 9.210938 L 2.070312 9.203125 C 2.242188 9.199219 2.269531 9.203125 2.292969 9.238281 C 2.320312 9.277344 2.335938 9.277344 2.636719 9.253906 C 2.960938 9.226562 3.035156 9.207031 3.058594 9.128906 C 3.074219 9.082031 3.125 9.0625 3.25 9.0625 C 3.328125 9.0625 3.335938 9.058594 3.335938 9.011719 C 3.335938 8.96875 3.351562 8.957031 3.425781 8.9375 C 3.679688 8.871094 3.929688 8.75 4.179688 8.566406 C 4.332031 8.457031 4.976562 7.820312 4.957031 7.796875 C 4.949219 7.792969 4.710938 7.722656 4.640625 7.707031 C 4.640625 7.707031 4.574219 7.78125 4.488281 7.867188 Z M 2.246094 8.738281 C 2.246094 8.757812 2.226562 8.769531 2.195312 8.769531 C 2.167969 8.769531 2.105469 8.777344 2.050781 8.785156 C 1.972656 8.796875 1.957031 8.792969 1.957031 8.765625 C 1.957031 8.722656 1.988281 8.710938 2.128906 8.710938 C 2.21875 8.707031 2.246094 8.714844 2.246094 8.738281 Z M 2.253906 8.914062 C 2.242188 8.925781 2.175781 8.9375 2.101562 8.941406 C 1.988281 8.945312 1.96875 8.941406 1.960938 8.914062 C 1.953125 8.882812 1.976562 8.875 2.09375 8.871094 C 2.238281 8.863281 2.289062 8.878906 2.253906 8.914062 Z M 2.265625 9.050781 C 2.265625 9.085938 2.203125 9.105469 2.074219 9.105469 C 2.003906 9.105469 1.976562 9.097656 1.976562 9.074219 C 1.976562 9.042969 2.03125 9.027344 2.179688 9.023438 C 2.242188 9.019531 2.265625 9.027344 2.265625 9.050781 Z M 2.265625 9.050781 "/>
<path style=" stroke:none;fill-rule:nonzero;fill:rgb(0%,0%,0%);fill-opacity:1;" d="M 13.722656 9.753906 C 13.589844 10.09375 13.363281 10.480469 13.066406 10.886719 C 12.960938 11.027344 12.855469 11.203125 12.785156 11.355469 C 12.722656 11.484375 12.601562 11.722656 12.511719 11.875 C 12.375 12.113281 12.351562 12.171875 12.339844 12.273438 C 12.324219 12.503906 12.4375 12.628906 12.832031 12.820312 C 13.945312 13.351562 14.496094 13.710938 14.835938 14.132812 C 14.933594 14.25 15.046875 14.308594 15.175781 14.3125 C 15.402344 14.3125 15.5 14.480469 15.355469 14.625 C 15.285156 14.691406 15.28125 14.703125 15.28125 14.84375 C 15.28125 14.941406 15.292969 15.007812 15.3125 15.035156 C 15.375 15.125 15.816406 15.386719 16.042969 15.46875 C 16.160156 15.511719 16.382812 15.546875 16.421875 15.527344 C 16.472656 15.511719 16.46875 15.296875 16.414062 14.988281 C 16.363281 14.683594 16.320312 14.570312 16.121094 14.257812 C 16.027344 14.105469 15.949219 13.953125 15.917969 13.855469 C 15.835938 13.597656 15.769531 13.539062 15.257812 13.277344 C 14.507812 12.898438 14.023438 12.585938 13.929688 12.421875 C 13.882812 12.34375 13.878906 12.3125 13.886719 12.191406 C 13.898438 11.972656 13.980469 11.828125 14.253906 11.535156 C 14.53125 11.234375 14.65625 11.082031 14.785156 10.886719 C 14.898438 10.722656 15.058594 10.414062 15.105469 10.273438 L 15.136719 10.183594 L 14.957031 10.101562 C 14.644531 9.953125 14.230469 9.792969 14.007812 9.726562 C 13.886719 9.695312 13.785156 9.667969 13.773438 9.667969 C 13.765625 9.667969 13.742188 9.707031 13.722656 9.753906 Z M 13.722656 9.753906 "/>
</g>
</svg>
